<svg width="337" height="78" viewBox="0 0 337 78" fill="none" xmlns="http://www.w3.org/2000/svg">
<ellipse cx="310" cy="38.5" rx="18" ry="16.5" fill="#80C4D3"/>
<rect x="180" y="20" width="29" height="27" fill="#F3C055"/>
<path d="M10.5 46.5V23.5C19.6667 21 38 19.4 38 33C38 46.6 19.6667 47.6667 10.5 46.5Z" fill="#EA0D7E" stroke="#BC0A65"/>
<path d="M68.5 19.5L56 48H83.5L68.5 19.5Z" fill="#70CE9D" stroke="black"/>
<path d="M5.312 62V17.2H24.704C28.7147 17.2 32.1707 17.8613 35.072 19.184C37.9733 20.464 40.2133 22.32 41.792 24.752C43.3707 27.184 44.16 30.0853 44.16 33.456C44.16 36.784 43.3707 39.664 41.792 42.096C40.2133 44.528 37.9733 46.4053 35.072 47.728C32.1707 49.008 28.7147 49.648 24.704 49.648H11.072L15.68 44.976V62H5.312ZM15.68 46.128L11.072 41.2H24.128C27.328 41.2 29.7173 40.5173 31.296 39.152C32.8747 37.7867 33.664 35.888 33.664 33.456C33.664 30.9813 32.8747 29.0613 31.296 27.696C29.7173 26.3307 27.328 25.648 24.128 25.648H11.072L15.68 20.72V46.128ZM43.424 62L63.392 17.2H73.632L93.664 62H82.784L66.4 22.448H70.496L54.048 62H43.424ZM53.408 52.4L56.16 44.528H79.2L82.016 52.4H53.408ZM98.312 62V17.2H108.68V53.552H131.144V62H98.312ZM146.473 35.248H168.041V43.312H146.473V35.248ZM147.241 53.68H171.625V62H136.937V17.2H170.793V25.52H147.241V53.68ZM179.875 62V17.2H199.267C203.277 17.2 206.733 17.8613 209.635 19.184C212.536 20.464 214.776 22.32 216.355 24.752C217.933 27.184 218.723 30.0853 218.723 33.456C218.723 36.784 217.933 39.664 216.355 42.096C214.776 44.4853 212.536 46.32 209.635 47.6C206.733 48.88 203.277 49.52 199.267 49.52H185.635L190.243 44.976V62H179.875ZM208.354 62L197.155 45.744H208.227L219.555 62H208.354ZM190.243 46.128L185.635 41.264H198.691C201.891 41.264 204.28 40.5813 205.859 39.216C207.437 37.808 208.227 35.888 208.227 33.456C208.227 30.9813 207.437 29.0613 205.859 27.696C204.28 26.3307 201.891 25.648 198.691 25.648H185.635L190.243 20.72V46.128ZM226.937 62V17.2H235.513L254.585 48.816H250.041L268.793 17.2H277.305L277.433 62H267.705L267.641 32.112H269.433L254.457 57.264H249.785L234.489 32.112H236.665V62H226.937ZM309.822 62.768C306.281 62.768 302.995 62.192 299.966 61.04C296.979 59.888 294.377 58.2667 292.158 56.176C289.982 54.0853 288.275 51.632 287.038 48.816C285.843 46 285.246 42.928 285.246 39.6C285.246 36.272 285.843 33.2 287.038 30.384C288.275 27.568 290.003 25.1147 292.222 23.024C294.441 20.9333 297.043 19.312 300.03 18.16C303.017 17.008 306.259 16.432 309.758 16.432C313.299 16.432 316.542 17.008 319.486 18.16C322.473 19.312 325.054 20.9333 327.23 23.024C329.449 25.1147 331.177 27.568 332.414 30.384C333.651 33.1573 334.27 36.2293 334.27 39.6C334.27 42.928 333.651 46.0213 332.414 48.88C331.177 51.696 329.449 54.1493 327.23 56.24C325.054 58.288 322.473 59.888 319.486 61.04C316.542 62.192 313.321 62.768 309.822 62.768ZM309.758 53.936C311.763 53.936 313.598 53.5947 315.262 52.912C316.969 52.2293 318.462 51.248 319.742 49.968C321.022 48.688 322.003 47.1733 322.686 45.424C323.411 43.6747 323.774 41.7333 323.774 39.6C323.774 37.4667 323.411 35.5253 322.686 33.776C322.003 32.0267 321.022 30.512 319.742 29.232C318.505 27.952 317.033 26.9707 315.326 26.288C313.619 25.6053 311.763 25.264 309.758 25.264C307.753 25.264 305.897 25.6053 304.19 26.288C302.526 26.9707 301.054 27.952 299.774 29.232C298.494 30.512 297.491 32.0267 296.766 33.776C296.083 35.5253 295.742 37.4667 295.742 39.6C295.742 41.6907 296.083 43.632 296.766 45.424C297.491 47.1733 298.473 48.688 299.71 49.968C300.99 51.248 302.483 52.2293 304.19 52.912C305.897 53.5947 307.753 53.936 309.758 53.936Z" fill="white"/>
</svg>
